<svg xmlns="http://www.w3.org/2000/svg" xmlns:xlink="http://www.w3.org/1999/xlink" version="1.1" width="120" height="60" viewBox="0 0 120 60" xml:space="preserve">
<desc>Created with Fabric.js 3.5.0</desc>
<defs>
</defs>
<rect x="0" y="0" width="100%" height="100%" fill="#ffffff"/>
<g transform="matrix(1.4568 0 0 1.3803 25.61 29.5725)" id="934394">
<path style="stroke: none; stroke-width: 0; stroke-dasharray: none; stroke-linecap: butt; stroke-dashoffset: 0; stroke-linejoin: miter; stroke-miterlimit: 4; is-custom-font: none; font-file-url: none; fill: rgb(17,25,24); fill-rule: nonzero; opacity: 1;" vector-effect="non-scaling-stroke" transform=" translate(-16, -18.0005)" d="M 16 27 c 0 0 3 -1 6 -1 s 7 1 7 1 V 8 c 0 0 0 -1 -0.983 -1.224 C 26.647 6.463 24.081 6 22 6 c -3 0 -6 1 -6 1 s -3 -1 -6 -1 C 7.919 6 5.353 6.463 3.983 6.776 C 3 7 3 8 3 8 v 19 c 0 0 4 -1 7 -1 S 16 27 16 27 z M 20 13 h 5 c 0.552 0 1 0.447 1 1 s -0.448 1 -1 1 h -5 c -0.552 0 -1 -0.447 -1 -1 S 19.448 13 20 13 z M 20 17 h 5 c 0.552 0 1 0.447 1 1 s -0.448 1 -1 1 h -5 c -0.552 0 -1 -0.447 -1 -1 S 19.448 17 20 17 z M 7 13 h 5 c 0.552 0 1 0.447 1 1 s -0.448 1 -1 1 H 7 c -0.552 0 -1 -0.447 -1 -1 S 6.448 13 7 13 z M 6 18 c 0 -0.553 0.448 -1 1 -1 h 5 c 0.552 0 1 0.447 1 1 s -0.448 1 -1 1 H 7 C 6.448 19 6 18.553 6 18 z M 31 8.999 v 20 c 0 0.279 -0.117 0.547 -0.323 0.736 c -0.186 0.17 -0.427 0.264 -0.677 0.264 c -0.028 0 -11.004 -0.913 -11.004 -0.913 c -0.043 0.512 -0.473 0.913 -0.996 0.913 h -4 c -0.523 0 -0.953 -0.401 -0.996 -0.913 L 2.083 29.996 c -0.281 0.029 -0.554 -0.071 -0.76 -0.26 C 1.117 29.546 1 29.279 1 28.999 v -20 c 0 -0.553 0.448 -1 1 -1 v 0 v 19.648 c 0 0.321 0.295 0.56 0.608 0.488 C 4.056 27.801 7.755 27 10 27 c 2.794 0 5.656 0.939 5.684 0.949 l 0.315 0.105 l 0.316 -0.105 C 16.344 27.939 19.206 27 22 27 c 2.245 0 5.944 0.801 7.392 1.136 C 29.705 28.208 30 27.969 30 27.648 L 30 8 v 0 C 30.552 7.999 31 8.447 31 8.999 z" stroke-linecap="round"/>
</g>
<g transform="matrix(0.0544 0 0 0.0544 63.9804 29.5806)" id="828050">
<path style="stroke: none; stroke-width: 0; stroke-dasharray: none; stroke-linecap: butt; stroke-dashoffset: 0; stroke-linejoin: miter; stroke-miterlimit: 4; is-custom-font: none; font-file-url: none; fill: rgb(0,0,0); fill-rule: nonzero; opacity: 1;" vector-effect="non-scaling-stroke" transform=" translate(-256, -256)" d="M 417.4 224 H 288 V 94.6 c 0 -16.9 -14.3 -30.6 -32 -30.6 c -17.7 0 -32 13.7 -32 30.6 V 224 H 94.6 C 77.7 224 64 238.3 64 256 c 0 17.7 13.7 32 30.6 32 H 224 v 129.4 c 0 16.9 14.3 30.6 32 30.6 c 17.7 0 32 -13.7 32 -30.6 V 288 h 129.4 c 16.9 0 30.6 -14.3 30.6 -32 C 448 238.3 434.3 224 417.4 224 z" stroke-linecap="round"/>
</g>
<g transform="matrix(0.0908 0 0 0.0908 93.6629 30.0064)" id="53724">
<g style="" vector-effect="non-scaling-stroke">
		<g transform="matrix(1 0 0 1 -5.2365 0)" id="690995">
<path style="stroke: none; stroke-width: 1; stroke-dasharray: none; stroke-linecap: butt; stroke-dashoffset: 0; stroke-linejoin: miter; stroke-miterlimit: 4; is-custom-font: none; font-file-url: none; fill: rgb(0,0,0); fill-rule: nonzero; opacity: 1;" transform=" translate(-243.5715, -248.808)" d="M 470.314 392.915 l -40.059 -0.264 c -0.043 0 -0.083 0 -0.117 0 c -9.308 0 -16.885 7.512 -16.944 16.828 c -0.058 9.365 7.473 16.993 16.829 17.06 l 18.814 0.123 c -5.874 10.357 -16.995 17.357 -29.727 17.383 h -0.141 c -18.814 -0.049 -34.112 -15.356 -34.112 -34.186 V 284.557 c -10.441 8.107 -21.918 16.232 -33.888 23.258 v 102.044 c 0 12.51 3.631 24.101 9.546 34.186 H 179.634 c -23.969 0 -43.461 -19.492 -43.461 -43.46 V 87.755 c 0 -12.508 -3.631 -24.1 -9.548 -34.185 h 180.883 c 23.969 0 43.462 19.493 43.462 43.46 v 13.478 c 10.556 -8.033 21.634 -15.694 32.927 -22.992 c -4.756 -38.133 -36.999 -67.834 -76.389 -67.834 c 0 0 -239.881 0.049 -239.964 0.049 C 30.255 20.03 0 50.409 0 87.755 c 0 9.317 7.519 16.886 16.829 16.944 l 40.059 0.266 c 0.042 0 0.083 0 0.117 0 c 9.308 0 16.885 -7.513 16.944 -16.829 c 0.058 -9.365 -7.473 -16.993 -16.829 -17.059 l -18.815 -0.125 C 44.18 60.594 55.3 53.594 68.032 53.57 h 0.141 c 18.814 0.049 34.112 15.355 34.112 34.185 v 312.83 c 0 42.649 34.7 77.349 77.35 77.349 c 0 0 239.881 -0.049 239.964 -0.049 c 37.288 -0.299 67.544 -30.68 67.544 -68.026 C 487.143 400.544 479.621 392.972 470.314 392.915 z" stroke-linecap="round"/>
</g>
		<g transform="matrix(1 0 0 1 104.9122 -45.865)" id="389114">
<path style="stroke: none; stroke-width: 1; stroke-dasharray: none; stroke-linecap: butt; stroke-dashoffset: 0; stroke-linejoin: miter; stroke-miterlimit: 4; is-custom-font: none; font-file-url: none; fill: rgb(0,0,0); fill-rule: nonzero; opacity: 1;" transform=" translate(-353.7202, -202.943)" d="M 495.291 70.348 c -1.521 -1.521 -3.548 -2.316 -5.6 -2.316 c -1.183 0 -2.382 0.264 -3.492 0.81 c -34.293 16.846 -104.104 53.803 -143.586 93.292 c -43.767 43.758 -71.74 89.8 -71.565 114.497 l -26.989 26.988 l -34.235 34.235 l 41.93 -5.989 l 10.358 -10.358 l 26.923 -26.922 c 0.074 0 0.132 0.032 0.206 0.032 c 24.738 0 70.64 -27.957 114.266 -71.583 c 14.163 -14.163 27.962 -32.273 40.664 -51.204 l -9.201 -9.2 l 15.199 -0.009 c 3.433 -5.32 6.791 -10.615 10.011 -15.926 l -17.226 -5.039 l 25.631 -9.233 c 11.781 -20.468 21.593 -39.49 28.22 -52.984 C 498.304 76.396 497.684 72.739 495.291 70.348 z" stroke-linecap="round"/>
</g>
</g>
</g>
</svg>