<svg version="1.1" id="Layer_1" xmlns="http://www.w3.org/2000/svg" x="0" y="0" viewBox="0 0 432 432" xml:space="preserve"><style>.st0{fill:#ebefee}.st1{fill:#9bb2ac}.st2{fill:#40ba9b}.st3{fill:#fff}.st4{fill:#283a39}.st5{fill:none}.st7{fill:#fff;stroke:#283a39;stroke-width:2;stroke-miterlimit:10}</style><circle class="st0" cx="216" cy="216" r="192"/><path class="st1" d="M138 372c-1 0-1.8.8-1.8 1.7v16.8c1.2.5 2.4 1.1 3.6 1.6v-18.4c0-.8-.8-1.6-1.8-1.7z"/><path class="st1" d="M387.1 183.4h-.2c-.5 0-.9.3-1.2.7l-81.8 104.8-39.9-40.1c-.7-.7-1.8-.7-2.5 0L220 230.3l-41.5 71.4c-.3.3-.5.8-.5 1.2v69.8h-39.8c-1 0-1.8.8-1.8 1.8s.8 1.8 1.8 1.8h41.5c1 0 1.8-.8 1.8-1.7v-70.8l40-68.9 41.2 17.8 40.2 40.2c.3.4.8.6 1.4.5.5 0 1-.3 1.3-.7l81.8-104.9 20.2 15.8c-.1-1.6-.2-3.2-.4-4.8l-19-14.9c-.3-.3-.7-.5-1.1-.5z"/><path class="st2" d="M305.3 207.1c-.3-.2-.6-.3-1-.3-.2 0-.3 0-.5.1-.5.1-.9.5-1.1.9l-41.5 82.7-41.3 41.3c-.3.3-.5.8-.5 1.3l.3 74.9c1.2 0 2.4 0 3.6-.1l-.3-74.1 41-40.9c.1-.1.2-.3.3-.5l40.7-81.2 57.5 40.3c.3.2.6.3 1 .3h41.2l.6-3.6-41.3-.1-58.7-41z"/><path class="st3" d="M139.8 119.8h21.5v45.9h-21.5z"/><path class="st4" d="M161.2 166.7h-21.5c-.6 0-1-.4-1.1-.9v-46c0-.6.4-1.1 1-1.1h21.5c.6 0 1.1.5 1.1 1.1v45.9c.1.5-.4 1-1 1zm-20.4-2.1h19.3v-43.8h-19.3v43.8z"/><path class="st2" d="M113.5 85.7h18.7v79.9h-18.7z"/><path class="st4" d="M132.2 166.7h-18.7c-.6 0-1.1-.4-1.1-1v-80c0-.6.5-1.1 1-1.1h18.7c.6 0 1.1.5 1.1 1.1v79.9c.1.6-.4 1.1-1 1.1zm-17.6-2.1h16.6V86.7h-16.6v77.9z"/><path class="st3" d="M92.3 129h13.2v36.6H92.3z"/><path class="st4" d="M105.5 166.7H92.3c-.6 0-1-.4-1.1-.9V129c0-.6.5-1.1 1-1.1h13.2c.6 0 1.1.5 1.1 1.1v36.6c.1.6-.4 1.1-1 1.1zm-12.2-2.1h11.1v-34.5H93.3v34.5z"/><path class="st4" d="M83.7 164.6h90v2.1h-90z"/><circle class="st3" cx="387.1" cy="185.2" r="3.5"/><path class="st4" d="M387.1 180.2c2.8 0 5 2.2 5 5s-2.2 5-5 5-5-2.2-5-5 2.2-5 5-5zm0 6.9c1.1 0 1.9-.9 1.9-1.9 0-1.1-.9-1.9-1.9-1.9-1.1 0-1.9.9-1.9 1.9 0 1.1.8 1.9 1.9 1.9 0 .1 0 .1 0 0z"/><circle class="st3" cx="304.1" cy="291.6" r="3.5"/><path class="st4" d="M304.1 286.6c2.8 0 5 2.2 5 5s-2.2 5-5 5-5-2.2-5-5 2.2-5 5-5zm0 6.9c1.1 0 1.9-.9 1.9-1.9s-.9-1.9-1.9-1.9c-1.1 0-1.9.9-1.9 1.9 0 1 .8 1.9 1.9 1.9z"/><circle class="st3" cx="262.6" cy="250.1" r="3.5"/><path class="st4" d="M262.6 245.1c2.8 0 5 2.2 5 5s-2.2 5-5 5-5-2.2-5-5 2.2-5 5-5zm0 7c1.1 0 1.9-.9 1.9-1.9 0-1.1-.9-1.9-1.9-1.9-1.1 0-1.9.9-1.9 1.9 0 1 .8 1.9 1.9 1.9z"/><circle class="st3" cx="221" cy="233.6" r="3.5"/><path class="st4" d="M221.1 228.6c2.8 0 5 2.2 5 5s-2.2 5-5 5-5-2.2-5-5 2.2-5 5-5zm0 6.9c1.1 0 1.9-.9 1.9-1.9 0-1.1-.9-1.9-1.9-1.9-1.1 0-1.9.9-1.9 1.9-.1 1 .8 1.9 1.9 1.9-.1 0 0 0 0 0z"/><circle class="st3" cx="179.6" cy="303" r="3.5"/><path class="st4" d="M179.6 298.1c2.8 0 5 2.2 5 5s-2.2 5-5 5-5-2.2-5-5 2.3-5 5-5zm0 6.9c1.1 0 1.9-.9 1.9-1.9s-.9-1.9-1.9-1.9c-1.1 0-1.9.9-1.9 1.9 0 1 .8 1.9 1.9 1.9z"/><circle class="st3" cx="179.6" cy="374.6" r="3.5"/><path class="st4" d="M179.6 369.6c2.8 0 5 2.2 5 5s-2.2 5-5 5-5-2.2-5-5 2.3-5 5-5zm0 6.9c1.1 0 1.9-.9 1.9-1.9s-.9-1.9-1.9-1.9c-1.1 0-1.9.9-1.9 1.9 0 1 .8 1.9 1.9 1.9z"/><circle class="st3" cx="137.6" cy="374.6" r="3.5"/><path class="st4" d="M137.6 369.6c2.8 0 5 2.2 5 5s-2.2 5-5 5-5-2.2-5-5 2.3-5 5-5zm0 6.9c1.1 0 1.9-.9 1.9-1.9s-.9-1.9-1.9-1.9c-1.1 0-1.9.9-1.9 1.9 0 1 .8 1.9 1.9 1.9z"/><circle class="st3" cx="221" cy="333" r="3.5"/><path class="st2" d="M221.1 328.1c2.8 0 5 2.2 5 5s-2.2 5-5 5-5-2.2-5-5 2.2-5 5-5zm0 6.9c1.1 0 1.9-.9 1.9-1.9s-.9-1.9-1.9-1.9c-1.1 0-1.9.9-1.9 1.9-.1 1 .8 1.9 1.9 1.9z"/><circle class="st3" cx="304.1" cy="208.7" r="3.5"/><path class="st2" d="M304.1 203.7c2.8 0 5 2.2 5 5s-2.2 5-5 5-5-2.2-5-5 2.2-5 5-5zm0 6.9c1.1 0 1.9-.9 1.9-1.9 0-1.1-.9-1.9-1.9-1.9s-1.9.9-1.9 1.9c0 1 .8 1.9 1.9 1.9z"/><circle class="st3" cx="261.5" cy="290.4" r="3.5"/><path class="st2" d="M262.6 286.6c2.8 0 5 2.2 5 5s-2.2 5-5 5-5-2.2-5-5 2.2-5 5-5zm0 6.9c1.1 0 1.9-.9 1.9-1.9 0-1.1-.9-1.9-1.9-1.9-1.1 0-1.9.9-1.9 1.9 0 1 .8 1.9 1.9 1.9z"/><circle class="st3" cx="363.4" cy="250.1" r="3.5"/><path class="st2" d="M363.4 245.1c2.8 0 5 2.2 5 5s-2.2 5-5 5-5-2.2-5-5 2.2-5 5-5zm0 7c1.1 0 1.9-.9 1.9-1.9 0-1.1-.9-1.9-1.9-1.9-1.1 0-1.9.9-1.9 1.9 0 1 .8 1.9 1.9 1.9z"/><circle class="st4" cx="87.3" cy="269.3" r="70"/><path class="st1" d="M130.7 215.9c26.7 26.7 26.8 70 .1 96.8l-48.5-48.4-48.5-48.5c26.8-26.7 70.1-26.7 96.9.1 0-.1 0-.1 0 0z"/><path class="st3" d="M82.3 264.3L143 233l5.1 11.6 2.7 16-3 23.1z"/><path class="st1" d="M130.8 312.7c-2.8 2.7-5.6 5.2-8.7 7.4-.2.1-.4.2-.6.4-.4.3-.8.6-1.2.8-8.3 5.6-17.7 9.2-27.6 10.7-.2 0-.5.1-.8.1l-.8.1c-.2 0-.5.1-.8.1-2.9.3-5.7.5-8.6.5-37.7-.2-68.1-30.8-68-68.5 0-18.2 7.2-35.6 20.1-48.5l48.4 48.5 48.6 48.4z"/><path class="st4" d="M131.9 313.7c-2.8 2.8-5.8 5.3-8.9 7.5-.2.1-.4.3-.6.4-.4.3-.8.6-1.3.9-8.5 5.7-18.1 9.5-28.2 11l-.8.1c-.2 0-.4 0-.5.1h-.2c-.3 0-.5.1-.8.1-30.2 3.6-59.2-12.7-71.9-40.3-4.2-9.2-6.4-19.1-6.4-29.2v-.1c0-18.5 7.3-36.3 20.5-49.4.6-.6 1.5-.6 2.1 0l48.4 48.4 48.5 48.4c.3.3.4.6.4 1 .1.4-.1.8-.3 1.1zM15.3 264.4c0 36.8 29.7 66.7 66.6 67 2.8 0 5.6-.1 8.4-.5l.8-.1h.2l.5-.1.8-.1c9.7-1.5 18.9-5.1 27-10.5l1.2-.8.5-.4c2.6-1.9 5.1-4 7.5-6.2l-47.5-47.4-47.4-47.4c-12 12.5-18.7 29.1-18.6 46.5 0-.1.1-.1 0 0z"/><path class="st3" d="M33.8 215.8l48.4 48.4L20 292.9c-4.1-9-6.2-18.7-6.2-28.6 0-18.2 7.2-35.6 20-48.5z"/><path class="st4" d="M83.3 265.3c-.1.1-.3.2-.4.3l-62.3 28.6c-.4.1-.8.1-1.1 0-.4-.1-.6-.4-.8-.8-4.2-9.2-6.4-19.1-6.4-29.2v-.1c0-18.5 7.4-36.3 20.5-49.4.6-.6 1.5-.6 2.1 0l48.4 48.4c.3.3.5.8.4 1.3 0 .4-.1.7-.4.9zm-62.6 25.6l59-27.1-45.9-45.9c-12 12.5-18.6 29.1-18.6 46.4v.1c.1 9.1 1.9 18.1 5.5 26.5z"/><path class="st3" d="M130.8 312.7c-2.7 2.7-5.6 5.2-8.7 7.4-.2.1-.4.2-.6.4-4.8 3.3-9.9 6-15.3 8-4.4 1.6-8.9 2.8-13.5 3.6l-.8.1-.8.1-.8.1c-2.9.4-5.7.5-8.6.5l.5-68.5 48.6 48.3z"/><path class="st4" d="M131.8 313.8c-2.7 2.7-5.7 5.2-8.8 7.5-.2.1-.4.3-.6.4-4.8 3.4-10.1 6.2-15.6 8.2h-.1c-4.4 1.7-9 2.9-13.7 3.6l-.8.1c-.2 0-.4 0-.5.1h-.2c-.3 0-.5.1-.8.1-2.9.3-5.9.5-8.8.5-.4 0-.7-.2-1-.5-.3-.3-.4-.6-.4-1l.5-68.5c0-.6.4-1.1.9-1.4.5-.2 1.2-.1 1.6.3l48.5 48.4c.6.6.6 1.5 0 2l-.2.2zm-26 13.3c5.3-2 10.3-4.6 14.9-7.9l.5-.4c2.6-1.9 5.1-3.9 7.5-6.2l-45-44.9-.4 63.5c2.3 0 4.7-.2 6.9-.5l.8-.1h.2l.5-.1.8-.1c4.5-.7 8.9-1.9 13.2-3.5l.1.2z"/><path transform="rotate(-27.202 112.773 248.628)" class="st4" d="M78.5 247.2H147v2.9H78.5z"/><path transform="rotate(-73.201 115.991 274.01)" class="st4" d="M114.5 239.7h2.9v68.5h-2.9z"/><path class="st5" d="M143.9 234.3L83 265.6"/><path class="st4" d="M131.9 313.7c-.6.6-1.5.6-2.1 0l-48.5-48.4-48.5-48.5c-.6-.6-.6-1.5 0-2.1 27.3-27.4 71.6-27.4 99-.1s27.4 71.8.1 99.1zM36 215.9l47.4 47.4 47.5 47.3c26.2-26.2 26.1-68.6-.1-94.8s-68.6-26.1-94.8.1zm293.6-36.7c-10.6-9-114.4-84.9-121.5-88.8-.3-.2-.7-.2-1.1 0-.3.2-.5.5-.5.9V180c0 .6.5 1.1 1 1.1h121.3c.4 0 .8-.3 1-.7.3-.4.1-.9-.2-1.2z"/><path class="st3" d="M231.2 64.3h126.2v91.6H231.2z"/><path class="st4" d="M357.4 157.1H231.2c-.7 0-1.2-.5-1.2-1.2V64.3c0-.7.5-1.2 1.2-1.2h126.2c.7 0 1.2.5 1.2 1.2v91.6c0 .7-.6 1.2-1.2 1.2zm-125-2.4h123.8V65.5H232.4v89.2z"/><path class="st1" d="M231.2 64.3h126.2V90H231.2z"/><path class="st4" d="M357.4 91.2H231.2c-.6 0-1.2-.5-1.2-1.2V64.3c0-.7.5-1.2 1.2-1.2h126.2c.7 0 1.2.5 1.2 1.2V90c-.1.6-.6 1.2-1.2 1.2zm-125-2.4h123.8V65.5H232.4v23.3z"/><path class="st4" d="M239.7 70.7h13.9v2.4h-13.9zm0 5.2h13.9v2.4h-13.9zm0 5.2h13.9v2.4h-13.9z"/><path fill="#7fd6c2" d="M246.3 108.3h96v20.6h-96z"/><path class="st3" d="M214.8 81.3H341v91.6H214.8z"/><path class="st4" d="M340.9 174.1H214.8c-.7 0-1.2-.5-1.2-1.2V81.3c0-.7.5-1.2 1.2-1.2H341c.7 0 1.2.5 1.2 1.2v91.6c-.1.7-.6 1.2-1.3 1.2zm-125-2.4h123.8V82.5H216l-.1 89.2z"/><path class="st1" d="M214.8 81.3H341V107H214.8z"/><path class="st4" d="M340.9 108.2H214.8c-.7 0-1.2-.5-1.2-1.2V81.3c0-.7.5-1.2 1.2-1.2H341c.7 0 1.2.5 1.2 1.2V107c-.1.6-.6 1.2-1.3 1.2zm-125-2.4h123.8V82.5H216l-.1 23.3z"/><path class="st4" d="M223.3 87.8h13.9v2.4h-13.9zm0 5.1h13.9v2.4h-13.9zm0 5.2h13.9v2.4h-13.9z"/><path class="st2" d="M306.8 147c-.6 0-1.1-.5-1.1-1.1v-21.1c0-.6.5-1.1 1.1-1.1.6 0 1.1.5 1.1 1.1v21.1c.1.6-.4 1.1-1.1 1.1z"/><path class="st2" d="M311.7 132c-.4 0-.7-.2-.9-.4l-4-5.2-4 5.2c-.4.5-1.1.6-1.6.3s-.6-1.1-.3-1.6l.1-.1 4.9-6.4c.2-.3.5-.4.9-.4s.7.2.9.4l4.9 6.4c.4.5.3 1.2-.2 1.6-.2.1-.4.2-.7.2z"/><path class="st0" d="M265 150.2c-5.9 0-10.8-4.8-10.8-10.8v-3.6c0-5.9 4.8-10.8 10.8-10.8 5.9 0 10.8 4.8 10.8 10.8v3.6c0 6-4.9 10.8-10.8 10.8z"/><path class="st4" d="M265 151.3c-6.5 0-11.8-5.3-11.8-11.8v-3.6c0-6.5 5.3-11.8 11.8-11.8 6.5 0 11.8 5.3 11.8 11.8v3.6c0 6.5-5.3 11.8-11.8 11.8zm0-25.2c-5.4 0-9.7 4.3-9.7 9.7v3.6c0 5.4 4.3 9.7 9.7 9.7 5.4 0 9.7-4.3 9.7-9.7v-3.6c0-5.3-4.3-9.7-9.7-9.7z"/><path class="st0" d="M287 171.7c0-12.2-9.8-22-22-22s-22 9.8-22 22h44z"/><path class="st4" d="M244.1 171.7c.4-11.6 10-20.6 21.6-20.3 11.1.3 19.9 9.2 20.3 20.3h2.1c0-12.7-10.3-23.1-23.1-23.1-12.7 0-23 10.3-23 23.1h2.1z"/><path class="st5" d="M307.8 378l38.2-62"/><path class="st4" d="M307.8 379.3c-.4 0-.8-.2-1-.5-.4-.5-.3-1.3.2-1.8l38.1-62c.5-.4 1.3-.4 1.8.2s.4 1.3-.2 1.8l-38.1 62c-.2.2-.5.3-.8.3z"/><path class="st5" d="M269.3 342.6l38 34.4"/><path class="st4" d="M307.3 378.2c-.4 0-.8-.2-1.1-.6l-38-34.4c-.4-.6-.3-1.4.3-1.8.6-.4 1.4-.3 1.8.3 0 .1.1.1.1.2l38 34.4c.3.6.2 1.4-.4 1.7-.2.2-.5.3-.7.2z"/><path class="st5" d="M267.6 342.5l78.3-27.3"/><path class="st4" d="M345.9 316.4h-.1l-78.3 27.3c-.7-.1-1.1-.8-1-1.5.1-.6.6-1 1.2-1L346 314c.7 0 1.2.6 1.1 1.3v.1c-.1.6-.6 1-1.2 1z"/><circle class="st7" cx="268.6" cy="341.6" r="18.6"/><circle class="st2" cx="268.6" cy="337.5" r="3.8"/><path class="st2" d="M274.6 348.7h-12v-1.4c0-3.3 2.7-6 6-6s6 2.7 6 6v1.4z"/><circle class="st7" cx="308" cy="377" r="18.6"/><circle class="st2" cx="308" cy="372.8" r="3.8"/><path class="st2" d="M314 384.1h-12v-1.4c0-3.3 2.7-6 6-6s6 2.7 6 6v1.4z"/><circle class="st7" cx="346" cy="314" r="18.6"/><circle class="st2" cx="346" cy="309.8" r="3.8"/><path class="st2" d="M352 321.1h-12v-1.4c0-3.3 2.7-6 6-6s6 2.7 6 6v1.4z"/></svg>