<svg version="1.1" id="Layer_1" xmlns="http://www.w3.org/2000/svg" x="0" y="0" viewBox="0 0 432 432" xml:space="preserve"><style>.st1{fill:#283a39}.st2{fill:#fff}.st3{fill:#9bb2ac}.st4{fill:#40ba9b}.st5{fill:none}</style><circle cx="216" cy="216" r="192" fill="#ebefee"/><path class="st1" d="M93.5 299.7c-10.6-9-20.6-19.4-26.5-46.8-2.5-11.4-6.5-18.7-12.7-22.9-5.5-3.8-12.1-4.6-19.1-5.5S21.1 222.8 14 219c-.5-.3-1.2-.1-1.4.4-.1.2-.1.3-.1.5v80.6c0 .6.5 1.1 1 1.1h79.3c.5 0 .9-.3 1-.7.2-.4 0-.9-.3-1.2z"/><path class="st2" d="M19.8 211h120.8v82.9H19.8z"/><path class="st1" d="M140.6 295H19.8c-.6 0-1.1-.5-1.1-1v-83c0-.6.5-1.1 1.1-1.1h120.8c.6 0 1.1.5 1.1 1.1v82.9c0 .6-.4 1.1-1.1 1.1.1 0 .1 0 0 0zm-119.7-2.1h118.7v-80.8H20.9v80.8z"/><path class="st3" d="M19.8 211h120.8v19.1H19.8z"/><path class="st1" d="M141.7 231.2h-123v-21.3h123v21.3zm-120.8-2.1h118.7v-17H20.9v17z"/><path class="st4" d="M125.4 259.1h-4.8l-2.4 4.4-2.5-8.4-2.5 4h-4.9l-1.4-10.3-6.1 26.3-3.9-35.1-4.2 19.2H85l-18.6-.1-2.3 4.4-2.6-8.4-2.4 4h-5l-1.4-10.3-6.1 26.3-3.8-35.1-4.3 19.2h-7.1"/><path class="st1" d="M100.8 276.2c-.6 0-1-.4-1.1-.9l-3.1-28.6-2.9 12.8c-.1.5-.5.8-1 .8H85l-17.9-.1L65 264c-.2.4-.6.6-1 .6-.4-.1-.8-.3-.9-.8l-1.9-6-1.2 1.9c-.2.3-.6.5-.9.5h-5c-.5 0-1-.4-1.1-.9l-.6-4.6-4.8 20.7c-.1.6-.7 1-1.3.8-.5-.1-.8-.5-.9-.9l-3.1-28.6-2.8 12.8c-.1.5-.6.8-1.1.8h-7.1c-.6 0-1.1-.5-1.1-1.1s.5-1.1 1.1-1.1h6.2l4.1-18.3c.1-.5.6-.9 1.1-.8.5 0 .9.4 1 .9l3.2 28.8 4.7-20.2c.1-.5.6-.8 1.1-.8.5 0 .9.4 1 .9L55 258h3.4l2.1-3.4c.3-.5 1-.7 1.5-.3.2.1.4.3.5.6l1.8 5.9 1.1-2.1c.2-.3.5-.6.9-.6l19.1.1h6.2l4.1-18.3c.1-.5.6-.8 1.1-.8.5 0 .9.4 1 .9l3.1 28.8 4.7-20.2c.1-.5.6-.9 1.1-.8.5 0 .9.4 1 .9l1.3 9.4h3.4l2.1-3.4c.3-.5 1-.7 1.5-.3.2.1.4.3.5.6l1.8 5.9 1.1-2.1c.2-.3.6-.5.9-.5h4.8c.6 0 1.1.5 1.1 1.1s-.5 1.1-1.1 1.1H121l-2 3.8c-.2.4-.6.6-1 .6-.4-.1-.8-.3-.9-.8l-1.9-6-1.2 1.9c-.2.3-.6.5-.9.5h-4.9c-.5 0-1-.4-1.1-.9l-.6-4.6-4.8 20.7c0 .2-.4.5-.9.5z"/><path transform="rotate(-45.001 130.801 217.61)" class="st1" d="M129.7 214.1h2.1v7.1h-2.1z"/><path transform="rotate(-45.001 130.808 217.617)" class="st1" d="M127.3 216.5h7.1v2.1h-7.1z"/><path class="st1" d="M124 221.4h-7.6v-7.6h7.6v7.6zm-5.5-2.1h3.3V216h-3.3v3.3zm-11.9 0h5.5v2.1h-5.5z"/><path class="st2" d="M30.2 202.9H151v82.9H30.2z"/><path class="st1" d="M151 286.9H30.2c-.6 0-1.1-.5-1.1-1V203c0-.6.5-1.1 1-1.1H151c.6 0 1.1.5 1.1 1v82.9c0 .6-.5 1.1-1.1 1.1zm-119.8-2.1h118.7V204H31.2v80.8z"/><path class="st3" d="M30.2 202.9H151V222H30.2z"/><path class="st1" d="M152.1 223.1h-123v-21.3h123v21.3zM31.2 221h118.7v-17H31.2v17z"/><path class="st4" d="M135.7 252.5H131l-2.4 4.3-2.6-8.3-2.4 4h-4.9l-1.5-10.3-6.1 26.3-3.8-35.1-4.3 19.2h-7.7l-18.5-.1-2.4 4.3-2.5-8.3-2.5 4h-4.9l-1.4-10.3-6.1 26.3-3.9-35.1-4.2 19.2h-7.1"/><path class="st1" d="M111.1 269.6c-.6 0-1-.5-1.1-1l-3.2-28.6-2.9 12.8c-.1.5-.5.8-1 .8h-7.7l-17.9-.1-2.1 3.8c-.2.4-.6.6-1.1.6-.4 0-.8-.3-.9-.8l-1.9-6.1-1.2 1.9c-.2.3-.5.5-.9.5h-5c-.5 0-1-.4-1.1-.9l-.6-4.6-4.5 20.9c-.1.5-.6.9-1.1.8-.5 0-.9-.4-1-1L52.8 240l-2.9 12.8c-.1.5-.5.8-1 .8h-7.1c-.6.1-1.1-.4-1.2-1s.4-1.1 1-1.2H48l4.1-18.3c.1-.6.7-1 1.3-.8.5.1.8.5.8.9l3.2 28.8 4.6-20c.1-.5.6-.9 1.1-.8.5 0 .9.4 1 .9l1.3 9.4h3.4L71 248c.2-.4.6-.6 1.1-.5.4.1.8.4.9.8l1.8 5.9 1.1-2.1c.2-.3.5-.6.9-.6l19.1.1h6.2l4.1-18.3c.1-.5.6-.9 1.1-.8.5 0 1 .5 1 1l3.2 28.8 4.7-20.2c.1-.5.6-.8 1.1-.8.5 0 .9.4 1 .9l1.3 9.4h3.4l2.1-3.4c.2-.4.6-.6 1-.5.4 0 .8.3.9.8l1.8 5.8 1.2-2.1c.2-.3.6-.6.9-.6h4.8c.6.1 1 .6 1 1.2 0 .5-.5.9-1 1h-4.1l-2.1 3.8c-.2.4-.6.6-1.1.6-.4 0-.8-.3-.9-.8l-1.9-6.1-1.2 1.9c-.2.3-.5.5-.9.5h-4.9c-.5 0-1-.4-1.1-.9l-.6-4.6-4.8 20.7c0 .4-.5.7-1 .7z"/><path transform="rotate(-45.001 141.164 211.021)" class="st1" d="M140.1 207.5h2.1v7.1h-2.1z"/><path transform="rotate(-45.001 141.164 211.021)" class="st1" d="M137.6 209.9h7.1v2.1h-7.1z"/><path class="st1" d="M134.4 214.8h-7.6v-7.6h7.6v7.6zm-5.5-2.1h3.3v-3.3h-3.3v3.3zm-11.9 0h5.5v2.1H117z"/><path class="st2" d="M40.5 195.3h120.8v82.9H40.5z"/><path class="st1" d="M161.4 279.3H40.5c-.6 0-1.1-.5-1.1-1.1v-82.9c0-.6.5-1.1 1-1.1h120.8c.6 0 1.1.5 1.1 1.1v82.9c.1.6-.4 1.1-.9 1.1zm-119.8-2.1h118.7v-80.8H41.6v80.8z"/><path class="st3" d="M40.5 195.3h120.8v19.1H40.5z"/><path class="st1" d="M162.4 215.5h-123v-21.3h123v21.3zm-120.8-2.1h118.7v-17H41.6v17z"/><path class="st3" d="M121.5 263c-.6 0-1-.5-1.1-1l-3.1-28.6-2.8 12.8c-.1.5-.6.9-1.1.8H87.8l-2.1 3.8c-.2.4-.6.6-1 .6s-.8-.3-.9-.8l-1.9-6.1-1.2 1.9c-.2.3-.5.5-.9.5h-5c-.5 0-1-.4-1.1-.9l-.6-4.6-4.8 20.7c-.1.6-.7.9-1.3.8-.4-.1-.8-.5-.8-.9l-3.1-28.7-2.9 12.8c-.1.5-.5.8-1 .8h-7.1c-.6-.1-1-.6-1-1.2 0-.5.5-.9 1-1h6.2l4.1-18.3c.1-.6.7-1 1.3-.8.5.1.8.5.8.9l3.2 28.8 4.7-20.2c.1-.5.6-.9 1.1-.8.5 0 1 .4 1 .9l1.3 9.4h3.4l2.1-3.4c.3-.5 1-.7 1.5-.3.2.1.4.3.5.6l1.8 5.9 1.1-2.1c.2-.4.6-.6 1-.6l19.1.1h6.2l4.1-18.3c.1-.6.7-1 1.3-.8.5.1.8.5.8.9l3.2 28.8 4.7-20.2c.1-.5.6-.9 1.1-.8.5 0 .9.4 1 .9l1.3 9.4h3.4l2.1-3.4c.2-.4.6-.6 1.1-.5.4 0 .8.3.9.8l1.8 5.9 1.1-2.1c.2-.3.5-.6.9-.6h4.8c.6-.1 1.1.4 1.2 1s-.4 1.1-1 1.2H142l-2.1 3.8c-.2.4-.6.6-1 .6-.4-.1-.8-.3-.9-.8l-1.9-6.1-1.2 1.9c-.2.3-.6.5-.9.5h-5c-.5 0-1-.4-1.1-.9l-.6-4.6-4.8 20.7c-.1.6-.5.9-1 .9z"/><path transform="rotate(-45.001 151.512 204.402)" class="st1" d="M150.4 200.9h2.1v7.1h-2.1z"/><path transform="rotate(-45.001 151.512 204.402)" class="st1" d="M148 203.3h7.1v2.1H148z"/><path class="st1" d="M144.8 208.2h-7.6v-7.6h7.6v7.6zm-5.5-2.1h3.3v-3.3h-3.3v3.3zm-12 0h5.5v2.1h-5.5z"/><path transform="rotate(-45.001 322.555 323.524)" class="st2" d="M312.3 313.3h20.5v20.5h-20.5z"/><path class="st1" d="M322.6 339.1c-.3 0-.5-.1-.7-.3l-14.5-14.5c-.4-.4-.4-1.1 0-1.5l14.5-14.5c.4-.4 1-.5 1.4-.1l.1.1 14.5 14.5c.4.4.4 1.1 0 1.5l-14.5 14.5c-.3.2-.6.3-.8.3zm-13-15.6 13 13 13-13-13-13-13 13z"/><path transform="rotate(-45.001 337.073 338.037)" class="st2" d="M326.8 327.8h20.5v20.5h-20.5z"/><path class="st1" d="M337.1 353.6c-.3 0-.6-.1-.8-.3l-14.5-14.5c-.4-.4-.4-1.1 0-1.5l14.5-14.5c.4-.4 1.1-.4 1.5 0l14.5 14.5c.2.2.3.5.3.8 0 .3-.1.6-.3.8l-14.5 14.5c-.1.1-.4.2-.7.2zm-13-15.6 13 13 13-13-13-13-13 13z"/><path transform="rotate(-45.001 351.583 352.548)" class="st2" d="M341.3 342.3h20.5v20.5h-20.5z"/><path class="st1" d="M351.6 368.1c-.3 0-.6-.1-.8-.3l-14.5-14.5c-.2-.2-.3-.5-.3-.8 0-.3.1-.6.3-.8l14.5-14.5c.4-.4 1.1-.4 1.5 0l14.5 14.5c.4.4.4 1.1 0 1.5l-14.5 14.5c-.2.3-.4.4-.7.4zm-13-15.5 13 13 13-13-13-13-13 13z"/><path transform="rotate(-45.001 307.915 338.168)" class="st2" d="M297.7 327.9h20.5v20.5h-20.5z"/><path class="st1" d="M307.9 353.7c-.3 0-.6-.1-.8-.3l-14.5-14.5c-.4-.4-.4-1.1 0-1.5l14.5-14.5c.4-.4 1.1-.4 1.5 0l14.5 14.5c.4.4.4 1.1 0 1.5l-14.5 14.5c-.1.2-.4.3-.7.3zm-13-15.5 13 13 13-13-13-13-13 13z"/><path transform="rotate(-45.001 322.432 352.685)" class="st2" d="M312.2 342.4h20.5v20.5h-20.5z"/><path class="st1" d="M322.4 368.3c-.3 0-.6-.1-.8-.3l-14.5-14.5c-.4-.4-.4-1.1 0-1.5l14.5-14.5c.4-.4 1.1-.4 1.5 0l14.5 14.5c.4.4.5 1 .1 1.4l-.1.1-14.5 14.5c-.1.1-.4.2-.7.3zm-13-15.6 13 13 13-13-13-13-13 13z"/><path transform="rotate(-45.001 336.914 367.176)" class="st2" d="M326.7 356.9h20.5v20.5h-20.5z"/><path class="st1" d="M337 382.8c-.3 0-.6-.1-.8-.3L321.7 368c-.4-.4-.4-1.1 0-1.5l14.5-14.5c.4-.4 1.1-.4 1.5 0l14.5 14.5c.4.4.4 1.1 0 1.5l-14.5 14.5c-.1.2-.4.3-.7.3zm-13-15.6 13 13 13-13-13-13-13 13z"/><path class="st5" d="M307.9 323.6 297.3 313"/><path class="st1" d="M307.9 324.7c-.3 0-.6-.1-.8-.3l-10.6-10.6c-.4-.4-.4-1.1 0-1.5.4-.4 1.1-.4 1.5 0l10.6 10.6c.4.4.4 1.1 0 1.5-.1.2-.4.3-.7.3z"/><path transform="rotate(-45.001 279.289 280.24)" class="st2" d="M269 270h20.5v20.5H269z"/><path class="st1" d="M279.3 295.8c-.3 0-.6-.1-.8-.3L264 281c-.4-.4-.5-1-.1-1.4l.1-.1 14.5-14.5c.4-.4 1.1-.4 1.5 0l14.5 14.5c.4.4.5 1 .1 1.4l-.1.1-14.5 14.5c-.1.2-.4.3-.7.3zm-13-15.5 13 13 13-13-13-13-13 13z"/><path transform="rotate(-45.001 264.778 265.719)" class="st2" d="M254.5 255.5H275V276h-20.5z"/><path class="st1" d="M264.8 281.3c-.3 0-.6-.1-.8-.3l-14.5-14.5c-.2-.2-.3-.5-.3-.8 0-.3.1-.6.3-.8l14.5-14.5c.4-.4 1.1-.4 1.5 0l14.6 14.5c.4.4.4 1.1 0 1.5L265.6 281c-.3.2-.5.3-.8.3zm-13-15.6 13 13 13-13-13-13-13 13z"/><path transform="rotate(-45.001 250.272 251.219)" class="st2" d="M240 241h20.5v20.5H240z"/><path class="st1" d="M250.3 266.8c-.3 0-.5-.1-.7-.3L235 252c-.4-.4-.4-1.1 0-1.5l14.5-14.5c.4-.4 1.1-.4 1.5 0l14.5 14.5c.2.2.3.5.3.8 0 .3-.1.5-.3.7L251 266.5c-.2.2-.5.3-.7.3zm-13-15.6 13 13 13-13-13-13-13 13z"/><path transform="rotate(-45.001 264.65 294.904)" class="st2" d="M254.4 284.6h20.5v20.5h-20.5z"/><path class="st1" d="M264.6 310.5c-.3 0-.6-.1-.8-.3l-14.5-14.5c-.4-.4-.4-1.1 0-1.5l14.5-14.5c.4-.4 1.1-.4 1.5 0l14.5 14.5c.4.4.4 1.1 0 1.5l-14.5 14.5c-.1.2-.4.3-.7.3zm-13-15.6 13 13 13-13-13-13-13 13z"/><path class="st1" d="m302.1 287-14.5-14.5c-.4-.4-1-.5-1.4-.1l-.1.1-14.5 14.5-.1.1-.1.1-14.5 14.5c-.4.4-.4 1.1 0 1.5l14.5 14.5c.2.2.5.3.8.3.3 0 .6-.1.8-.3l14.5-14.5.1-.1.1-.1 14.5-14.5c.3-.4.3-1.1-.1-1.5zm29 29.1-14.5-14.5c-.4-.4-1.1-.4-1.5 0l-14.5 14.5-.1.1-.1.1-14.5 14.5c-.2.2-.3.5-.3.8 0 .3.1.6.3.8l14.5 14.5c.2.2.5.3.8.3.3 0 .6-.1.8-.3l14.5-14.5.1-.1.1-.1 14.5-14.5c.3-.5.4-1.1-.1-1.6.1 0 0 0 0 0z"/><path transform="rotate(-45.001 250.14 280.394)" class="st2" d="M239.9 270.1h20.5v20.5h-20.5z"/><path class="st1" d="M250.1 296c-.3 0-.5-.1-.7-.3l-14.5-14.5c-.4-.4-.4-1.1 0-1.5l14.5-14.5c.4-.4 1-.5 1.4-.1l.1.1 14.5 14.5c.4.4.4 1.1 0 1.5l-14.5 14.5c-.2.2-.5.3-.8.3zm-13-15.6 13 13 13-13-13-13-13 13z"/><path transform="rotate(-45.001 235.633 265.894)" class="st2" d="M225.4 255.6h20.5v20.5h-20.5z"/><path class="st1" d="M235.6 281.5c-.3 0-.6-.1-.8-.3l-14.5-14.5c-.4-.4-.4-1.1 0-1.5l14.5-14.5c.4-.4 1.1-.4 1.5 0l14.5 14.5c.4.4.4 1.1 0 1.5l-14.5 14.5c-.1.1-.4.2-.7.3zm-13-15.6 13 13 13-13-13-13-13 13z"/><path class="st5" d="m279.1 294.9 10.7 10.6"/><path class="st1" d="M289.8 306.6c-.3 0-.5-.1-.7-.3l-10.6-10.6c-.4-.4-.4-1.1 0-1.5.4-.4 1.1-.4 1.5 0l10.6 10.6c.4.4.4 1.1 0 1.5-.3.2-.5.3-.8.3z"/><path transform="rotate(-45.001 256.004 347.293)" class="st2" d="M248.7 327h14.6v40.5h-14.6z"/><path class="st1" d="M265.2 367.9c-.3 0-.5-.1-.7-.3l-28.7-28.7c-.4-.4-.4-1.1 0-1.5l10.3-10.3c.2-.2.5-.3.8-.3.3 0 .6.1.8.3l28.7 28.7c.4.4.4 1.1 0 1.5L266 367.5c-.2.3-.5.4-.8.4zM238 338.1l27.2 27.2 8.8-8.8-27.2-27.1-8.8 8.7z"/><path transform="rotate(-45.001 268.627 334.654)" class="st3" d="M253.6 314.4h30.1v40.5h-30.1z"/><path class="st1" d="M272.3 360.7c-.3 0-.6-.1-.8-.3l-28.7-28.7c-.4-.4-.4-1.1 0-1.5l21.3-21.3c.2-.2.5-.3.8-.3.3 0 .6.1.8.3l28.7 28.7c.2.2.3.5.3.8 0 .3-.1.6-.3.8l-21.3 21.3c-.2.1-.5.2-.8.2zM245.2 331l27.2 27.2 19.8-19.8-27.2-27.2-19.8 19.8z"/><path class="st3" d="m337.2 294.8-43.6 43.6-28.7-28.7 43.6-43.6c6-6 15.7-6 21.7 0l7 7c6 6 6 15.7.1 21.7 0-.1 0 0-.1 0z"/><path class="st1" d="M293.6 339.4c-.3 0-.6-.1-.8-.3l-28.7-28.7c-.4-.4-.4-1.1 0-1.5l43.6-43.6c6.4-6.4 16.8-6.4 23.2 0l7 7c6.4 6.4 6.4 16.8 0 23.2l-.8-.8.8.8-43.6 43.6c-.1.3-.4.4-.7.3zm-27.2-29.7 27.2 27.2 42.9-42.9c5.6-5.6 5.6-14.6 0-20.2l-7-7c-5.6-5.6-14.6-5.6-20.2 0l-42.9 42.9z"/><path class="st1" d="m338 272.3-7-7c-3.3-3.3-7.7-5-12.3-4.8-.6 0-1 .5-1 1.1 0 .1 0 .3.1.4 2.3 5.2 5.6 9.9 9.6 13.9s8.7 7.3 13.9 9.6c.1.1.3.1.4.1.2 0 .4-.1.5-.1.3-.2.5-.5.5-.9.3-4.6-1.5-9-4.7-12.3zm13-4.1c-.2 0-.4 0-.6-.1-.5-.3-.7-1-.4-1.5l20.5-33.9-33.9 20.4c-.5.3-1.2.1-1.5-.4-.3-.5-.1-1.2.4-1.5l37.6-22.7c.5-.3 1.2-.1 1.5.4.2.3.2.8 0 1.1L352 267.7c-.2.3-.6.5-1 .5z"/><circle class="st4" cx="373.7" cy="229.6" r="5.3"/><path class="st1" d="M373.7 235.9c-3.5 0-6.3-2.8-6.3-6.3s2.8-6.3 6.3-6.3 6.3 2.8 6.3 6.3c0 1.7-.6 3.3-1.8 4.5-1.2 1.1-2.8 1.8-4.5 1.8zm0-10.5c-2.3 0-4.1 1.9-4.1 4.2 0 2.3 1.9 4.1 4.2 4.1s4.1-1.9 4.1-4.2c0-1.1-.5-2.1-1.2-2.9-.8-.8-1.8-1.2-3-1.2z"/><path class="st2" d="M372.7 280.6c-12 4.1-27.4.1-38.7-11.3s-15.4-26.7-11.3-38.7l50 50z"/><path class="st1" d="M363 283.2c-3.4 0-6.9-.5-10.2-1.5-15-4.5-26.8-16.3-31.3-31.3-2-6.6-1.9-13.7.2-20.3.2-.6.8-.9 1.4-.7.2.1.3.1.4.3l50 50c.3.3.4.6.3 1-.1.4-.4.7-.7.8-3.3 1.2-6.7 1.7-10.1 1.7zm-39.8-50.6c-1.5 5.7-1.3 11.7.4 17.3 4.3 14.3 15.5 25.5 29.8 29.8 5.6 1.7 11.6 1.8 17.3.4l-47.5-47.5z"/><path class="st2" d="M288.7 314.6c-3.3-3.3-3.3-8.7 0-12l9-9c3.3-3.3 8.7-3.3 12 0 3.3 3.3 3.3 8.7 0 12l-9 9c-3.3 3.3-8.6 3.3-12 0z"/><path class="st1" d="M294.7 318.1c-5.3 0-9.6-4.3-9.5-9.6 0-2.5 1-4.9 2.8-6.7l9-9c3.7-3.7 9.8-3.7 13.6 0s3.7 9.8 0 13.6l-9 9c-1.9 1.8-4.3 2.8-6.9 2.7zm9-26c-2 0-3.9.8-5.3 2.2l-9 9c-2.9 2.9-2.9 7.7 0 10.6s7.7 2.9 10.6 0l9-9c2.9-2.9 2.9-7.6 0-10.5-1.4-1.5-3.3-2.3-5.3-2.3z"/><path class="st2" d="m332.5 160.8-19.7-21.5s-.1-.1-.1-.2V94.5h-20.5v44.8l-19.7 21.5c-3.4 3.7-5.3 8.5-5.2 13.5v6.7c0 5.8 4.7 10.6 10.6 10.6l24.6-.1 24.7.1c5.9 0 10.6-4.7 10.6-10.6v-6.7c0-5-1.9-9.8-5.3-13.5z"/><path class="st1" d="M317.3 95.5h-29.6c-.7 0-1.2-.5-1.2-1.2s.5-1.2 1.2-1.2h29.6c.7 0 1.2.5 1.2 1.2s-.5 1.2-1.2 1.2z"/><path class="st1" d="M327.2 193h-24.7l-24.7.1c-6.6 0-12-5.4-12-12v-6.7c0-5.4 2-10.5 5.6-14.4l19.4-21.1V94.3c0-.6.5-1.2 1.2-1.2h21c.7 0 1.2.5 1.2 1.2v44.5l19.4 21.1c3.6 3.9 5.6 9.1 5.6 14.4v6.6c0 3.2-1.3 6.2-3.5 8.5-2.3 2.4-5.3 3.6-8.5 3.6zm-24.7-2.5 15.2.1h9.4c5.3 0 9.6-4.3 9.6-9.6v-6.7c0-4.8-1.8-9.3-5-12.9L312.1 140c-.2-.2-.3-.5-.3-.8V95.5h-18.6v43.7c0 .3-.1.6-.3.8l-19.7 21.5c-3.2 3.5-5 8.1-5 12.9v6.7c0 5.3 4.3 9.6 9.6 9.6l24.7-.2z"/><path class="st4" d="M338 174.4v6.6c0 6-4.8 10.8-10.8 10.8h-24.7l-24.6.1c-6 0-10.8-4.8-10.9-10.7v-6.9c0-5.1 1.9-9.9 5.3-13.7l13.8-15H319l13.8 15c3.3 3.8 5.2 8.7 5.2 13.8z"/><path class="st1" d="M327.2 193h-24.7l-24.7.1c-6.6 0-12-5.4-12-12v-6.7c0-5.4 2-10.5 5.6-14.4l13.8-15c.2-.2.5-.4.9-.4H319c.3 0 .6.1.9.4l13.8 15c3.6 3.9 5.6 9.1 5.6 14.4v6.6c0 3.2-1.3 6.2-3.5 8.5-2.4 2.3-5.4 3.5-8.6 3.5zm-24.7-2.5 24.6.1c5.3 0 9.6-4.3 9.6-9.6v-6.7c0-4.8-1.8-9.3-5-12.9l-13.4-14.6h-31.8l-13.4 14.6c-3.2 3.5-5 8.1-5 12.9v6.6c0 5.3 4.3 9.6 9.6 9.6h24.8z"/><path class="st1" d="M303.2 145.1 293 129.5c-.4-.6-1.1-.7-1.6-.4-.3.2-.5.6-.5 1v8.7l-5.6 6.2-13.8 15c-3.6 3.9-5.6 9.1-5.6 14.4v6.7c0 6.6 5.4 12 12 12l24.6-.1h15.3c3.3-.4 6.2-2.5 7.6-5.5 1.4-3 1.2-6.6-.7-9.4"/><path class="st2" d="M224.5 146.6v-29h-20.7v29.1c-11.8 5.7-16.8 19.9-11.1 31.8 5.7 11.8 19.9 16.8 31.8 11.1 11.8-5.7 16.8-19.9 11.1-31.8-2.4-4.9-6.3-8.8-11.1-11.2z"/><path class="st1" d="M214.2 193.1c-13.8 0-25-11.2-24.9-25.1 0-9.3 5.2-17.8 13.4-22.1v-28.3c0-.7.5-1.2 1.2-1.2h20.7c.7 0 1.2.5 1.2 1.2v28.3c12.2 6.4 17 21.5 10.6 33.7-4.4 8.3-13 13.4-22.2 13.5zm-9.2-74.3v27.9c0 .5-.3.9-.7 1.1-3.8 1.8-7 4.7-9.2 8.2-6.7 10.5-3.6 24.5 6.9 31.2 10.5 6.7 24.5 3.6 31.2-6.9s3.6-24.5-6.9-31.2c-.8-.5-1.5-.9-2.3-1.3-.4-.2-.7-.6-.7-1.1v-27.9H205z"/><path class="st1" d="M228.2 118.8h-27.6c-.7 0-1.2-.5-1.2-1.2s.5-1.2 1.2-1.2h27.6c.7 0 1.2.5 1.2 1.2 0 .6-.5 1.2-1.2 1.2zm-11.3 74.1h-.2c-3.1-.6-5.8-2.8-7-5.7-1.3-3-1-6.4.8-9.1l18.5-28.5c.2-.3.5-.5.8-.5.3-.1.7.1.9.3 10.3 9.2 11.2 25 2 35.3-4.1 4.6-9.7 7.5-15.8 8.2zm13.2-40.8-17.7 27.3c-1.3 2-1.6 4.6-.6 6.9.9 2.2 2.8 3.8 5.1 4.3 12.4-1.6 21.2-12.9 19.6-25.3-.5-5-2.8-9.7-6.4-13.2z"/><path class="st4" d="M216.9 191.7c-.9.1-1.8.2-2.7.2-13.1 0-23.8-10.7-23.8-23.8 0-9.1 5.2-17.4 13.4-21.4h20.7c2 .9 3.8 2.2 5.4 3.6l-18.5 28.5c-2.6 3.9-1.5 9.2 2.5 11.8.9.5 1.9.9 3 1.1z"/><path class="st1" d="M214.2 193.1c-13.8 0-25-11.3-24.9-25.1 0-9.5 5.5-18.2 14.1-22.4l.2-.1h21.2l.2.1c2.1 1 4 2.3 5.7 3.8l.8.7-19.1 29.3c-1.4 2-1.6 4.6-.6 6.9.9 2.2 2.9 3.9 5.3 4.3l7.5 1.4-7.6.9c-.9.1-1.9.2-2.8.2zm-10.1-45.3c-3.7 1.8-6.8 4.6-9 8.1-6.7 10.5-3.6 24.5 6.9 31.2 3 1.9 6.5 3.1 10.1 3.4-1.1-1-1.9-2.1-2.4-3.4-1.3-3-1-6.4.8-9.1l17.9-27.6c-1.3-1-2.7-1.9-4.1-2.6h-20.2z"/><path class="st2" d="m283.8 144.6-.2-.3-8.5-13.1V62h-32.8v69.2l-8.5 13.1-.2.3z"/><path class="st3" d="m305 178.7-22.4-34.4h-48.5l-22.4 34.4c-2.6 3.9-1.4 9.2 2.5 11.8 1.4.9 3 1.4 4.6 1.4h79c4.7 0 8.5-3.8 8.5-8.5.1-1.7-.4-3.3-1.3-4.7z"/><path class="st1" d="M298.8 193.1h-80.2c-5.4 0-9.7-4.3-9.7-9.7 0-1.9.5-3.7 1.6-5.3l30.7-47.2V62c0-.7.5-1.2 1.2-1.2h32.8c.7 0 1.2.5 1.2 1.2v68.9l30.7 47.2c2.9 4.5 1.6 10.5-2.9 13.4-1.6 1-3.5 1.6-5.4 1.6zM243.5 63.2v68.1c0 .2-.1.5-.2.6l-30.8 47.5c-2.2 3.4-1.2 7.9 2.2 10.2 1.2.8 2.6 1.2 4 1.2h80.2c4.1 0 7.3-3.3 7.3-7.4 0-1.4-.4-2.8-1.2-4L282.6 145l-8.5-13c-.1-.2-.2-.4-.2-.6V63.2h-30.4z"/><path class="st1" d="M279.8 63.2h-42.1c-.7 0-1.2-.5-1.2-1.2s.5-1.2 1.2-1.2h42.1c.7 0 1.2.5 1.2 1.2-.1.7-.6 1.2-1.2 1.2z"/><path class="st2" d="M276.5 172c-2.5 0-4.5-2-4.5-4.5s2-4.5 4.5-4.5 4.5 2 4.5 4.4c0 2.6-2 4.6-4.5 4.6zm0-6.6c-1.2 0-2.1.9-2.1 2.1s.9 2.1 2.1 2.1c1.2 0 2.1-.9 2.1-2.1 0-1.1-.9-2.1-2.1-2.1zm-23.2 17.3c-2.5 0-4.5-2-4.5-4.5s2-4.5 4.5-4.5 4.5 2 4.5 4.5-2 4.5-4.5 4.5zm0-6.6c-1.2 0-2.1.9-2.1 2.1 0 1.2.9 2.1 2.1 2.1s2.1-.9 2.1-2.1-.9-2.1-2.1-2.1zm-3.2-15.3c-2.5 0-4.5-2-4.5-4.5s2-4.5 4.5-4.5 4.5 2 4.5 4.5c-.1 2.5-2.1 4.5-4.5 4.5zm0-6.6c-1.2 0-2.1.9-2.1 2.1 0 1.2.9 2.1 2.1 2.1 1.2 0 2.1-.9 2.1-2.1-.1-1.1-1-2-2.1-2.1z"/><path class="st1" d="m306.9 178-22.4-34.4c-.2-.3-.6-.6-1-.6h-49.8v2.4H283l22 33.9c2.2 3.4 1.2 7.9-2.2 10.2-1.2.8-2.6 1.2-4 1.2h-39.7v2.4h39.7c3.6 0 6.8-1.9 8.5-5.1 1.7-3.2 1.6-7-.4-10z"/><path class="st4" d="M143.7 351.4c-.6 0-1.1-.5-1.1-1.1v-18.5c0-.6.5-1.1 1.1-1.1.6 0 1.2.5 1.2 1.1v18.5c-.1.5-.6 1-1.2 1.1zm7.9 4.5c-.6 0-1.1-.5-1.1-1.1V327c0-.6.5-1.1 1.2-1.1.6 0 1.1.5 1.1 1.1v27.7c0 .7-.5 1.2-1.2 1.2zm8 1.4c-.6 0-1.1-.5-1.1-1.1v-30.5c0-.6.5-1.1 1.1-1.1.6 0 1.2.5 1.2 1.1v30.5c0 .6-.6 1.1-1.2 1.1z"/><path class="st4" d="M159.6 357.3c-.6 0-1.1-.5-1.1-1.1v-30.5c0-.6.5-1.1 1.1-1.1.6 0 1.2.5 1.2 1.1v30.5c0 .6-.6 1.1-1.2 1.1zm8-1.5c-.6 0-1.1-.5-1.1-1.1v-27.5c0-.6.5-1.1 1.2-1.1.6 0 1.1.5 1.1 1.1v27.5c-.1.6-.6 1.1-1.2 1.1zm7.9-4.9c-.6 0-1.1-.5-1.1-1.1v-17.9c0-.6.5-1.1 1.2-1.1.6 0 1.1.5 1.1 1.1v17.9c0 .6-.6 1.1-1.2 1.1zm15.9.9c-.6 0-1.1-.5-1.1-1.1v-19.4c0-.6.5-1.1 1.1-1.1.6 0 1.2.5 1.2 1.1v19.5c0 .5-.5 1-1.2 1zm8 4.4c-.6 0-1.1-.5-1.1-1.1v-28.2c0-.6.5-1.1 1.2-1.1.6 0 1.1.5 1.1 1.1V355c-.1.6-.6 1.2-1.2 1.2zm-79.6-.5c-.6 0-1.1-.5-1.2-1.1v-27.3c0-.6.5-1.1 1.2-1.1s1.2.5 1.2 1.1v27.3c0 .6-.6 1.1-1.2 1.1zm8-4.7c-.6 0-1.1-.5-1.1-1.1V332c-.1-.6.4-1.2 1-1.3.6-.1 1.2.4 1.3 1v18.1c-.1.7-.6 1.2-1.2 1.2z"/><path class="st1" d="M203.6 357.1h-.2c-8.5-1.1-15.5-6.2-21.2-15.6-5.6-9.2-14.2-14.7-22.8-14.7s-17.2 5.5-22.8 14.7c-4.8 7.9-12.7 13.8-20.5 15.4-.6.1-1.2-.3-1.3-1-.1-.6.3-1.1.8-1.3 7.2-1.5 14.5-7 19-14.3 6.1-9.9 15.3-15.8 24.8-15.8s18.7 5.9 24.8 15.8c5.4 8.7 11.7 13.5 19.5 14.5.6.1 1.1.7.9 1.3 0 .6-.5 1-1 1z"/><path class="st1" d="M159.4 357.3c-9.4 0-18.7-5.9-24.8-15.8-4.5-7.3-11.8-12.8-19-14.3-.6-.1-1-.7-.9-1.4.1-.6.7-1 1.3-.9 7.8 1.6 15.7 7.5 20.5 15.4 5.6 9.2 14.2 14.7 22.8 14.7s17.2-5.5 22.8-14.7 12.7-14.5 21.2-15.6c.6-.1 1.2.3 1.3 1 .1.6-.3 1.2-1 1.3-7.8 1-14.2 5.8-19.5 14.5-6 9.9-15.2 15.8-24.7 15.8zm-32.2-199.1c-5.6-.1-8.1-7.8-9.2-11.1-2.3-7-3.4-15.2-3.4-24.9s1.1-17.3 3.4-23.8c.7-2.2 1.7-4.4 3-6.3 1.8-2.7 3.9-4 6.2-3.9 5.6.1 8.1 7.8 9.1 11 2.3 7 3.4 15.2 3.4 24.9s-1.1 17.2-3.4 23.8c-.9 2.5-3.7 10.3-9.1 10.3zm-.1-67.9c-2.6 0-4.9 3-7.1 8.9-2.3 6.3-3.3 13.6-3.3 23.1s1.1 17.4 3.3 24.2c.8 2.6 3.1 9.5 7.2 9.6 2.6 0 5-3 7.1-8.9 2.3-6.3 3.3-13.6 3.3-23.1s-1.1-17.4-3.3-24.2c-.9-2.6-3.1-9.5-7.2-9.6z"/><path class="st1" d="M144.6 151.1c-2.9-.1-5.8-.7-8.6-1.9-6.9-2.7-13.4-7.6-20.6-15.2s-22.8-26.5-13-36.1c2.2-2.1 5.1-3.3 8.2-3.2 4.5.1 10 2.4 16.3 6.9 4.3 3.1 8.3 6.7 12 10.6 3.7 4 8.9 10.1 12.4 16.4 4.9 8.7 5.1 15.4.6 19.7-1.9 2-4.6 2.9-7.3 2.8zM110.3 97c-2.4-.1-4.7.9-6.4 2.5-8.6 8.5 7.8 27.5 13.1 33 6.9 7.4 13.2 12.1 19.8 14.7 2.8 1.1 9.8 3.3 13.6-.4 8.4-8.2-6.4-25.9-13.1-33.1-1.6-1.7-15.8-16.6-26.7-16.8-.1.1-.2.1-.3.1z"/><path class="st1" d="M110.4 150.6c-3 .1-5.9-1-8-3.1-3.3-3.3-3.6-8.8-.9-16.3 3-7.8 7.8-14.9 14-20.5 5.9-5.6 12.8-10 20.5-12.8 2.6-1 5.3-1.6 8-1.7 3.4-.1 6 .8 7.9 2.7 3.3 3.3 3.6 8.8.9 16.3-3 7.8-7.8 14.9-14 20.5-5.1 4.6-10.7 8.6-16.8 11.7-4.3 2.1-8.2 3.2-11.6 3.2zm34.2-52.3c-2.7.1-5.3.7-7.9 1.6-7.4 2.7-14.1 6.9-19.8 12.3-6 5.4-10.6 12.1-13.5 19.6-1.6 4.6-2.9 10.7.4 14.1 3.5 3.5 9.2 3.4 17.2-.5 5.9-3 11.4-6.8 16.3-11.3 6-5.4 10.6-12.1 13.5-19.6 2.4-6.6 2.2-11.4-.4-14.1-1.5-1.5-3.6-2.2-5.8-2.1z"/><path class="st1" d="M134.1 136.1c-2.2 0-4.5-.1-7-.3-8.2-.6-16.3-2-24.2-4.4h-.1c-3.7-1.2-10.5-3.4-10.5-8.4 0-2.7 1.9-6.7 10.7-9.9 6.7-2.5 14.5-3.3 24.4-2.5 8.2.6 16.3 2.1 24.2 4.4l.3.1c3.6 1.2 10.4 3.3 10.4 8.3s-5.8 8.1-10.6 9.9c-5.8 2-11.7 2.9-17.6 2.8zm-6.8-2.4c9.6.8 17.1 0 23.5-2.4 3.5-1.3 9.3-4 9.3-7.9 0-3.5-5.8-5.3-8.9-6.3l-.3-.1c-7.7-2.3-15.7-3.8-23.7-4.3-9.6-.8-17.1 0-23.5 2.4-8.3 3.1-9.3 6.6-9.3 7.9 0 3.4 5.9 5.3 9.1 6.3h.1c7.6 2.4 15.6 3.8 23.7 4.4z"/><circle class="st4" cx="127" cy="123" r="4"/></svg>